<mxfile host="app.diagrams.net" modified="2022-04-25T18:53:04.007Z" agent="5.0 (Windows NT 10.0; Win64; x64) AppleWebKit/537.36 (KHTML, like Gecko) Chrome/98.0.4758.141 YaBrowser/22.3.3.852 Yowser/2.5 Safari/537.36" etag="3JMS81ot1bAFjRaKOQd2" version="17.4.6" type="github">
  <diagram id="6a731a19-8d31-9384-78a2-239565b7b9f0" name="Page-1">
    <mxGraphModel dx="2652" dy="821" grid="1" gridSize="10" guides="1" tooltips="1" connect="1" arrows="1" fold="1" page="1" pageScale="1" pageWidth="1169" pageHeight="827" background="none" math="0" shadow="0">
      <root>
        <mxCell id="0" />
        <mxCell id="1" parent="0" />
        <mxCell id="ndaPjGm9_ansmyo_p6N0-62" style="edgeStyle=orthogonalEdgeStyle;rounded=0;orthogonalLoop=1;jettySize=auto;html=1;exitX=0.5;exitY=1;exitDx=0;exitDy=0;entryX=0.5;entryY=0;entryDx=0;entryDy=0;" edge="1" parent="1" source="ndaPjGm9_ansmyo_p6N0-55" target="ndaPjGm9_ansmyo_p6N0-56">
          <mxGeometry relative="1" as="geometry" />
        </mxCell>
        <mxCell id="ndaPjGm9_ansmyo_p6N0-55" value="НАЧАЛО" style="rounded=1;whiteSpace=wrap;html=1;" vertex="1" parent="1">
          <mxGeometry x="310" y="40" width="120" height="60" as="geometry" />
        </mxCell>
        <mxCell id="ndaPjGm9_ansmyo_p6N0-63" style="edgeStyle=orthogonalEdgeStyle;rounded=0;orthogonalLoop=1;jettySize=auto;html=1;exitX=0.5;exitY=1;exitDx=0;exitDy=0;entryX=0.5;entryY=0;entryDx=0;entryDy=0;" edge="1" parent="1" source="ndaPjGm9_ansmyo_p6N0-56" target="ndaPjGm9_ansmyo_p6N0-57">
          <mxGeometry relative="1" as="geometry" />
        </mxCell>
        <mxCell id="ndaPjGm9_ansmyo_p6N0-56" value="numbers[] =&amp;nbsp; [1, 8, 2, 3, 8, 2, 6, 8, 8 ]&lt;br&gt;index = 0&lt;br&gt;maximum = numbers[index]&lt;br&gt;count_maximal = 0" style="shape=parallelogram;perimeter=parallelogramPerimeter;whiteSpace=wrap;html=1;fixedSize=1;" vertex="1" parent="1">
          <mxGeometry x="155" y="130" width="430" height="60" as="geometry" />
        </mxCell>
        <mxCell id="ndaPjGm9_ansmyo_p6N0-64" value="ДА" style="edgeStyle=orthogonalEdgeStyle;rounded=0;orthogonalLoop=1;jettySize=auto;html=1;exitX=0.5;exitY=1;exitDx=0;exitDy=0;entryX=0.5;entryY=0;entryDx=0;entryDy=0;" edge="1" parent="1" source="ndaPjGm9_ansmyo_p6N0-57" target="ndaPjGm9_ansmyo_p6N0-58">
          <mxGeometry relative="1" as="geometry" />
        </mxCell>
        <mxCell id="ndaPjGm9_ansmyo_p6N0-68" style="edgeStyle=orthogonalEdgeStyle;rounded=0;orthogonalLoop=1;jettySize=auto;html=1;exitX=1;exitY=0.5;exitDx=0;exitDy=0;entryX=0.5;entryY=0;entryDx=0;entryDy=0;" edge="1" parent="1" source="ndaPjGm9_ansmyo_p6N0-57" target="ndaPjGm9_ansmyo_p6N0-73">
          <mxGeometry relative="1" as="geometry">
            <mxPoint x="770" y="733.2000732421875" as="targetPoint" />
            <Array as="points">
              <mxPoint x="880" y="270" />
              <mxPoint x="880" y="830" />
              <mxPoint x="370" y="830" />
            </Array>
          </mxGeometry>
        </mxCell>
        <mxCell id="ndaPjGm9_ansmyo_p6N0-57" value="index &amp;lt; numbers.length" style="rhombus;whiteSpace=wrap;html=1;" vertex="1" parent="1">
          <mxGeometry x="280" y="230" width="180" height="80" as="geometry" />
        </mxCell>
        <mxCell id="ndaPjGm9_ansmyo_p6N0-65" value="ДА" style="edgeStyle=orthogonalEdgeStyle;rounded=0;orthogonalLoop=1;jettySize=auto;html=1;exitX=0;exitY=0.5;exitDx=0;exitDy=0;entryX=0.5;entryY=0;entryDx=0;entryDy=0;" edge="1" parent="1" source="ndaPjGm9_ansmyo_p6N0-58" target="ndaPjGm9_ansmyo_p6N0-59">
          <mxGeometry relative="1" as="geometry" />
        </mxCell>
        <mxCell id="ndaPjGm9_ansmyo_p6N0-66" value="НЕТ" style="edgeStyle=orthogonalEdgeStyle;rounded=0;orthogonalLoop=1;jettySize=auto;html=1;exitX=1;exitY=0.5;exitDx=0;exitDy=0;" edge="1" parent="1" source="ndaPjGm9_ansmyo_p6N0-58" target="ndaPjGm9_ansmyo_p6N0-61">
          <mxGeometry relative="1" as="geometry" />
        </mxCell>
        <mxCell id="ndaPjGm9_ansmyo_p6N0-58" value="numbers[index] &amp;gt; maximum" style="rhombus;whiteSpace=wrap;html=1;" vertex="1" parent="1">
          <mxGeometry x="275" y="350" width="190" height="80" as="geometry" />
        </mxCell>
        <mxCell id="ndaPjGm9_ansmyo_p6N0-71" style="edgeStyle=orthogonalEdgeStyle;rounded=0;orthogonalLoop=1;jettySize=auto;html=1;exitX=0.5;exitY=1;exitDx=0;exitDy=0;" edge="1" parent="1" source="ndaPjGm9_ansmyo_p6N0-59">
          <mxGeometry relative="1" as="geometry">
            <mxPoint x="370" y="720" as="targetPoint" />
            <Array as="points">
              <mxPoint x="148" y="680" />
              <mxPoint x="370" y="680" />
            </Array>
          </mxGeometry>
        </mxCell>
        <mxCell id="ndaPjGm9_ansmyo_p6N0-59" value="maximum = numnbers[index]&lt;br&gt;count_maximal = 1" style="rounded=0;whiteSpace=wrap;html=1;" vertex="1" parent="1">
          <mxGeometry x="15" y="460" width="265" height="60" as="geometry" />
        </mxCell>
        <mxCell id="ndaPjGm9_ansmyo_p6N0-70" style="edgeStyle=orthogonalEdgeStyle;rounded=0;orthogonalLoop=1;jettySize=auto;html=1;exitX=0.5;exitY=1;exitDx=0;exitDy=0;entryX=0.5;entryY=0;entryDx=0;entryDy=0;" edge="1" parent="1" source="ndaPjGm9_ansmyo_p6N0-60" target="ndaPjGm9_ansmyo_p6N0-69">
          <mxGeometry relative="1" as="geometry">
            <Array as="points">
              <mxPoint x="623" y="680" />
              <mxPoint x="370" y="680" />
            </Array>
          </mxGeometry>
        </mxCell>
        <mxCell id="ndaPjGm9_ansmyo_p6N0-60" value="count_maximal ++" style="rounded=0;whiteSpace=wrap;html=1;" vertex="1" parent="1">
          <mxGeometry x="490" y="560" width="265" height="60" as="geometry" />
        </mxCell>
        <mxCell id="ndaPjGm9_ansmyo_p6N0-67" value="ДА" style="edgeStyle=orthogonalEdgeStyle;rounded=0;orthogonalLoop=1;jettySize=auto;html=1;exitX=0.5;exitY=1;exitDx=0;exitDy=0;entryX=0.5;entryY=0;entryDx=0;entryDy=0;" edge="1" parent="1" source="ndaPjGm9_ansmyo_p6N0-61" target="ndaPjGm9_ansmyo_p6N0-60">
          <mxGeometry relative="1" as="geometry" />
        </mxCell>
        <mxCell id="ndaPjGm9_ansmyo_p6N0-74" style="edgeStyle=orthogonalEdgeStyle;rounded=0;orthogonalLoop=1;jettySize=auto;html=1;entryX=0.5;entryY=0;entryDx=0;entryDy=0;" edge="1" parent="1" source="ndaPjGm9_ansmyo_p6N0-61" target="ndaPjGm9_ansmyo_p6N0-69">
          <mxGeometry relative="1" as="geometry">
            <Array as="points">
              <mxPoint x="810" y="490" />
              <mxPoint x="810" y="680" />
              <mxPoint x="370" y="680" />
            </Array>
          </mxGeometry>
        </mxCell>
        <mxCell id="ndaPjGm9_ansmyo_p6N0-61" value="numbers[index]&amp;nbsp; == maximum" style="rhombus;whiteSpace=wrap;html=1;" vertex="1" parent="1">
          <mxGeometry x="520" y="450" width="205" height="80" as="geometry" />
        </mxCell>
        <mxCell id="ndaPjGm9_ansmyo_p6N0-72" style="edgeStyle=orthogonalEdgeStyle;rounded=0;orthogonalLoop=1;jettySize=auto;html=1;exitX=0.5;exitY=1;exitDx=0;exitDy=0;entryX=0;entryY=0.5;entryDx=0;entryDy=0;" edge="1" parent="1" source="ndaPjGm9_ansmyo_p6N0-69" target="ndaPjGm9_ansmyo_p6N0-57">
          <mxGeometry relative="1" as="geometry">
            <Array as="points">
              <mxPoint x="370" y="800" />
              <mxPoint y="800" />
              <mxPoint y="270" />
            </Array>
          </mxGeometry>
        </mxCell>
        <mxCell id="ndaPjGm9_ansmyo_p6N0-69" value="index ++" style="rounded=0;whiteSpace=wrap;html=1;" vertex="1" parent="1">
          <mxGeometry x="310" y="720" width="120" height="60" as="geometry" />
        </mxCell>
        <mxCell id="ndaPjGm9_ansmyo_p6N0-73" value="print (count_maximal)" style="rounded=0;whiteSpace=wrap;html=1;" vertex="1" parent="1">
          <mxGeometry x="310" y="880" width="120" height="60" as="geometry" />
        </mxCell>
      </root>
    </mxGraphModel>
  </diagram>
</mxfile>
